<svg xmlns="http://www.w3.org/2000/svg" viewBox="0 0 64 64" fill="none">
  <path d="M9 26h46a5 5 0 0 1 5 5v22a6 6 0 0 1-6 6H10a6 6 0 0 1-6-6V31a5 5 0 0 1 5-5Z" fill="#C9820E"/>
  <path d="M9 26h46a5 5 0 0 1 5 5v8H4v-8a5 5 0 0 1 5-5Z" fill="#F0BC49"/>
  <path d="M29 26h6v33h-6V26Z" fill="#8A1C1C"/>
  <path d="M4 35h56v4H4v-4Z" fill="#8A1C1C"/>
  <path d="M31.9 9.4c1.6-3.3 7.9-4.5 11.9-.4 3.6 3.7 2.8 10-4.4 13.7-2.4 1.2-5 2.2-7.5 3.2V9.4Z" fill="#F6CE70"/>
  <path d="M32.1 9.4c-1.6-3.3-7.9-4.5-11.9-.4-3.6 3.7-2.8 10 4.4 13.7 2.4 1.2 5 2.2 7.5 3.2V9.4Z" fill="#F6CE70"/>
  <path d="M32 26a3.5 3.5 0 1 0 0-7 3.5 3.5 0 0 0 0 7Z" fill="#8A1C1C"/>
  <path d="M54 26H10a6 6 0 0 0-6 6v2.4a3.6 3.6 0 0 1 3-1.4h50a3.6 3.6 0 0 1 3 1.4V32a6 6 0 0 0-6-6Z" fill="#FFF2C7" fill-opacity=".2"/>
</svg>
